<svg width="512" height="512" viewBox="0 0 512 512" fill="none" xmlns="http://www.w3.org/2000/svg">
  <defs>
    <linearGradient id="grad1" x1="0%" y1="0%" x2="100%" y2="100%">
      <stop offset="0%" style="stop-color:#06C755;stop-opacity:1" />
      <stop offset="100%" style="stop-color:#00A3AF;stop-opacity:1" />
    </linearGradient>
  </defs>
  <rect width="512" height="512" rx="100" fill="url(#grad1)"/>
  <path d="M236 120C161.165 120 100 181.165 100 256C100 330.835 161.165 392 236 392C268.667 392 298.667 380.333 322 361L380 410V330C398.667 308.667 412 284 412 256C412 181.165 350.835 120 276 120H236ZM236 170H276C323.497 170 362 208.503 362 256C362 303.497 323.497 342 276 342H236C188.503 342 150 303.497 150 256C150 208.503 188.503 170 236 170Z" fill="white"/>
</svg>
